/* XPM */
static char * bottom_right_active_xpm[] = {
"6 6 5 1",
" 	c None",
".	c #2D2D2D",
"+	c #363636",
"@	c #3F3F3F",
"#	c #484848",
"..+@.#",
".....#",
".....#",
".....#",
".....#",
"######"};
