/* XPM */
static char * left_active_xpm[] = {
"6 6 5 1",
" 	c None",
".	c #474747",
"+	c #2D2D2D",
"@	c #424242",
"#	c #484848",
".+++++",
"@+++++",
"#+++++",
"#+++++",
"#+++++",
"#+++++"};
