/* XPM */
static char * right_inactive_xpm[] = {
"6 6 3 1",
" 	c None",
".	c #2D2D2D",
"+	c #484848",
".....+",
".....+",
".....+",
".....+",
".....+",
".....+"};
